<svg xmlns="http://www.w3.org/2000/svg" xmlns:xlink="http://www.w3.org/1999/xlink" width="1920" height="1080" viewBox="0 0 1920 1080">
  <defs>
    <style>
      .cls-1 {
        clip-path: url(#clip-Web_1920_1);
      }

      .cls-2 {
        fill: red;
      }

      .cls-10, .cls-3, .cls-4 {
        fill: #fff;
      }

      .cls-4, .cls-6 {
        stroke: #707070;
      }

      .cls-5 {
        fill: #066aff;
      }

      .cls-7, .cls-8 {
        stroke: none;
      }

      .cls-8 {
        fill: #707070;
      }

      .cls-9 {
        fill: none;
      }
    </style>
    <clipPath id="clip-Web_1920_1">
      <rect width="1920" height="1080"/>
    </clipPath>
  </defs>
  <g id="Web_1920_1" data-name="Web 1920 – 1" class="cls-1">
    <rect class="cls-10" width="1920" height="1080"/>
    <g id="Polygon_1" data-name="Polygon 1" transform="matrix(-0.819, -0.574, 0.574, -0.819, 863.699, 75.842)">
      <path class="cls-7" d="M 32.14025497436523 28.5 L 0.8597451448440552 28.5 L 16.5 1.011067271232605 L 32.14025497436523 28.5 Z"/>
      <path class="cls-8" d="M 16.5 2.022134780883789 L 1.719490051269531 28 L 31.28050994873047 28 L 16.5 2.022134780883789 M 16.5 0 L 33 29 L 0 29 L 16.5 0 Z"/>
    </g>
    <g id="Polygon_21" data-name="Polygon 21" transform="matrix(-0.819, -0.574, 0.574, -0.819, 1553.699, 75.842)">
      <path class="cls-7" d="M 32.14025497436523 28.5 L 0.8597451448440552 28.5 L 16.5 1.011067271232605 L 32.14025497436523 28.5 Z"/>
      <path class="cls-8" d="M 16.5 2.022134780883789 L 1.719490051269531 28 L 31.28050994873047 28 L 16.5 2.022134780883789 M 16.5 0 L 33 29 L 0 29 L 16.5 0 Z"/>
    </g>
    <path id="Polygon_80" data-name="Polygon 80" class="cls-2" d="M16.5,0,33,29H0Z" transform="matrix(-0.819, -0.574, 0.574, -0.819, 1063.699, 455.842)"/>
    <path id="Polygon_92" data-name="Polygon 92" class="cls-2" d="M16.5,0,33,29H0Z" transform="matrix(-0.819, -0.574, 0.574, -0.819, 183.699, 575.842)"/>
    <path id="Polygon_41" data-name="Polygon 41" class="cls-2" d="M16.5,0,33,29H0Z" transform="matrix(-0.819, -0.574, 0.574, -0.819, 230.699, 75.842)"/>
    <path id="Polygon_7" data-name="Polygon 7" class="cls-2" d="M16.5,0,33,29H0Z" transform="matrix(-0.819, -0.574, 0.574, -0.819, 564.699, 253.842)"/>
    <path id="Polygon_22" data-name="Polygon 22" class="cls-2" d="M16.5,0,33,29H0Z" transform="matrix(-0.819, -0.574, 0.574, -0.819, 1254.699, 247.842)"/>
    <path id="Polygon_68" data-name="Polygon 68" class="cls-2" d="M16.5,0,33,29H0Z" transform="matrix(-0.819, -0.574, 0.574, -0.819, 764.699, 633.842)"/>
    <path id="Polygon_97" data-name="Polygon 97" class="cls-2" d="M16.5,0,33,29H0Z" transform="matrix(-0.819, -0.574, 0.574, -0.819, 1871.699, 990.842)"/>
    <path id="Polygon_115" data-name="Polygon 115" class="cls-2" d="M16.5,0,33,29H0Z" transform="matrix(-0.819, -0.574, 0.574, -0.819, 1168.699, 1007.842)"/>
    <path id="Polygon_11" data-name="Polygon 11" class="cls-2" d="M16.5,0,33,29H0Z" transform="matrix(-0.819, -0.574, 0.574, -0.819, 327.699, 991.842)"/>
    <path id="Polygon_23" data-name="Polygon 23" class="cls-2" d="M16.5,0,33,29H0Z" transform="matrix(-0.819, -0.574, 0.574, -0.819, 1017.699, 985.842)"/>
    <g id="Polygon_66" data-name="Polygon 66" transform="matrix(-0.819, -0.574, 0.574, -0.819, 1527.699, 985.842)">
      <path class="cls-7" d="M 32.14025497436523 28.5 L 0.8597451448440552 28.5 L 16.5 1.011067271232605 L 32.14025497436523 28.5 Z"/>
      <path class="cls-8" d="M 16.5 2.022134780883789 L 1.719490051269531 28 L 31.28050994873047 28 L 16.5 2.022134780883789 M 16.5 0 L 33 29 L 0 29 L 16.5 0 Z"/>
    </g>
    <g id="Polygon_15" data-name="Polygon 15" transform="matrix(-0.819, -0.574, 0.574, -0.819, 375.699, 191.842)">
      <path class="cls-7" d="M 32.14025497436523 28.5 L 0.8597451448440552 28.5 L 16.5 1.011067271232605 L 32.14025497436523 28.5 Z"/>
      <path class="cls-8" d="M 16.5 2.022134780883789 L 1.719490051269531 28 L 31.28050994873047 28 L 16.5 2.022134780883789 M 16.5 0 L 33 29 L 0 29 L 16.5 0 Z"/>
    </g>
    <g id="Polygon_24" data-name="Polygon 24" transform="matrix(-0.819, -0.574, 0.574, -0.819, 1065.699, 191.842)">
      <path class="cls-7" d="M 32.14025497436523 28.5 L 0.8597451448440552 28.5 L 16.5 1.011067271232605 L 32.14025497436523 28.5 Z"/>
      <path class="cls-8" d="M 16.5 2.022134780883789 L 1.719490051269531 28 L 31.28050994873047 28 L 16.5 2.022134780883789 M 16.5 0 L 33 29 L 0 29 L 16.5 0 Z"/>
    </g>
    <g id="Polygon_69" data-name="Polygon 69" transform="matrix(-0.819, -0.574, 0.574, -0.819, 575.699, 577.842)">
      <path class="cls-7" d="M 32.14025497436523 28.5 L 0.8597451448440552 28.5 L 16.5 1.011067271232605 L 32.14025497436523 28.5 Z"/>
      <path class="cls-8" d="M 16.5 2.022134780883789 L 1.719490051269531 28 L 31.28050994873047 28 L 16.5 2.022134780883789 M 16.5 0 L 33 29 L 0 29 L 16.5 0 Z"/>
    </g>
    <g id="Polygon_86" data-name="Polygon 86" transform="matrix(-0.819, -0.574, 0.574, -0.819, 1593.699, 351.842)">
      <path class="cls-7" d="M 32.14025497436523 28.5 L 0.8597451448440552 28.5 L 16.5 1.011067271232605 L 32.14025497436523 28.5 Z"/>
      <path class="cls-8" d="M 16.5 2.022134780883789 L 1.719490051269531 28 L 31.28050994873047 28 L 16.5 2.022134780883789 M 16.5 0 L 33 29 L 0 29 L 16.5 0 Z"/>
    </g>
    <g id="Polygon_19" data-name="Polygon 19" transform="matrix(-0.819, -0.574, 0.574, -0.819, 522.699, 618.842)">
      <path class="cls-7" d="M 32.14025497436523 28.5 L 0.8597451448440552 28.5 L 16.5 1.011067271232605 L 32.14025497436523 28.5 Z"/>
      <path class="cls-8" d="M 16.5 2.022134780883789 L 1.719490051269531 28 L 31.28050994873047 28 L 16.5 2.022134780883789 M 16.5 0 L 33 29 L 0 29 L 16.5 0 Z"/>
    </g>
    <g id="Polygon_25" data-name="Polygon 25" transform="matrix(-0.819, -0.574, 0.574, -0.819, 1212.699, 618.842)">
      <path class="cls-7" d="M 32.14025497436523 28.5 L 0.8597451448440552 28.5 L 16.5 1.011067271232605 L 32.14025497436523 28.5 Z"/>
      <path class="cls-8" d="M 16.5 2.022134780883789 L 1.719490051269531 28 L 31.28050994873047 28 L 16.5 2.022134780883789 M 16.5 0 L 33 29 L 0 29 L 16.5 0 Z"/>
    </g>
    <g id="Polygon_63" data-name="Polygon 63" transform="matrix(-0.819, -0.574, 0.574, -0.819, 1722.699, 612.842)">
      <path class="cls-7" d="M 32.14025497436523 28.5 L 0.8597451448440552 28.5 L 16.5 1.011067271232605 L 32.14025497436523 28.5 Z"/>
      <path class="cls-8" d="M 16.5 2.022134780883789 L 1.719490051269531 28 L 31.28050994873047 28 L 16.5 2.022134780883789 M 16.5 0 L 33 29 L 0 29 L 16.5 0 Z"/>
    </g>
    <g id="Polygon_2" data-name="Polygon 2" transform="translate(438.875 179.367) rotate(-68)">
      <path class="cls-7" d="M 32.14025497436523 28.5 L 0.8597451448440552 28.5 L 16.5 1.011067271232605 L 32.14025497436523 28.5 Z"/>
      <path class="cls-8" d="M 16.5 2.022134780883789 L 1.719490051269531 28 L 31.28050994873047 28 L 16.5 2.022134780883789 M 16.5 0 L 33 29 L 0 29 L 16.5 0 Z"/>
    </g>
    <g id="Polygon_26" data-name="Polygon 26" transform="translate(1128.875 179.367) rotate(-68)">
      <path class="cls-7" d="M 32.14025497436523 28.5 L 0.8597451448440552 28.5 L 16.5 1.011067271232605 L 32.14025497436523 28.5 Z"/>
      <path class="cls-8" d="M 16.5 2.022134780883789 L 1.719490051269531 28 L 31.28050994873047 28 L 16.5 2.022134780883789 M 16.5 0 L 33 29 L 0 29 L 16.5 0 Z"/>
    </g>
    <g id="Polygon_70" data-name="Polygon 70" transform="translate(638.875 565.367) rotate(-68)">
      <path class="cls-7" d="M 32.14025497436523 28.5 L 0.8597451448440552 28.5 L 16.5 1.011067271232605 L 32.14025497436523 28.5 Z"/>
      <path class="cls-8" d="M 16.5 2.022134780883789 L 1.719490051269531 28 L 31.28050994873047 28 L 16.5 2.022134780883789 M 16.5 0 L 33 29 L 0 29 L 16.5 0 Z"/>
    </g>
    <g id="Polygon_96" data-name="Polygon 96" transform="translate(1745.875 922.367) rotate(-68)">
      <path class="cls-7" d="M 32.14025497436523 28.5 L 0.8597451448440552 28.5 L 16.5 1.011067271232605 L 32.14025497436523 28.5 Z"/>
      <path class="cls-8" d="M 16.5 2.022134780883789 L 1.719490051269531 28 L 31.28050994873047 28 L 16.5 2.022134780883789 M 16.5 0 L 33 29 L 0 29 L 16.5 0 Z"/>
    </g>
    <g id="Polygon_87" data-name="Polygon 87" transform="translate(1656.875 339.367) rotate(-68)">
      <path class="cls-7" d="M 32.14025497436523 28.5 L 0.8597451448440552 28.5 L 16.5 1.011067271232605 L 32.14025497436523 28.5 Z"/>
      <path class="cls-8" d="M 16.5 2.022134780883789 L 1.719490051269531 28 L 31.28050994873047 28 L 16.5 2.022134780883789 M 16.5 0 L 33 29 L 0 29 L 16.5 0 Z"/>
    </g>
    <g id="Polygon_6" data-name="Polygon 6" transform="translate(374.875 368.367) rotate(-68)">
      <path class="cls-7" d="M 32.14025497436523 28.5 L 0.8597451448440552 28.5 L 16.5 1.011067271232605 L 32.14025497436523 28.5 Z"/>
      <path class="cls-8" d="M 16.5 2.022134780883789 L 1.719490051269531 28 L 31.28050994873047 28 L 16.5 2.022134780883789 M 16.5 0 L 33 29 L 0 29 L 16.5 0 Z"/>
    </g>
    <g id="Polygon_27" data-name="Polygon 27" transform="translate(1064.875 368.367) rotate(-68)">
      <path class="cls-7" d="M 32.14025497436523 28.5 L 0.8597451448440552 28.5 L 16.5 1.011067271232605 L 32.14025497436523 28.5 Z"/>
      <path class="cls-8" d="M 16.5 2.022134780883789 L 1.719490051269531 28 L 31.28050994873047 28 L 16.5 2.022134780883789 M 16.5 0 L 33 29 L 0 29 L 16.5 0 Z"/>
    </g>
    <g id="Polygon_95" data-name="Polygon 95" transform="translate(184.875 482.367) rotate(-68)">
      <path class="cls-7" d="M 32.14025497436523 28.5 L 0.8597451448440552 28.5 L 16.5 1.011067271232605 L 32.14025497436523 28.5 Z"/>
      <path class="cls-8" d="M 16.5 2.022134780883789 L 1.719490051269531 28 L 31.28050994873047 28 L 16.5 2.022134780883789 M 16.5 0 L 33 29 L 0 29 L 16.5 0 Z"/>
    </g>
    <g id="Polygon_71" data-name="Polygon 71" transform="translate(574.875 754.367) rotate(-68)">
      <path class="cls-7" d="M 32.14025497436523 28.5 L 0.8597451448440552 28.5 L 16.5 1.011067271232605 L 32.14025497436523 28.5 Z"/>
      <path class="cls-8" d="M 16.5 2.022134780883789 L 1.719490051269531 28 L 31.28050994873047 28 L 16.5 2.022134780883789 M 16.5 0 L 33 29 L 0 29 L 16.5 0 Z"/>
    </g>
    <g id="Polygon_10" data-name="Polygon 10" transform="translate(519.875 30.367) rotate(-68)">
      <path class="cls-7" d="M 32.14025497436523 28.5 L 0.8597451448440552 28.5 L 16.5 1.011067271232605 L 32.14025497436523 28.5 Z"/>
      <path class="cls-8" d="M 16.5 2.022134780883789 L 1.719490051269531 28 L 31.28050994873047 28 L 16.5 2.022134780883789 M 16.5 0 L 33 29 L 0 29 L 16.5 0 Z"/>
    </g>
    <g id="Polygon_28" data-name="Polygon 28" transform="translate(1209.875 30.367) rotate(-68)">
      <path class="cls-7" d="M 32.14025497436523 28.5 L 0.8597451448440552 28.5 L 16.5 1.011067271232605 L 32.14025497436523 28.5 Z"/>
      <path class="cls-8" d="M 16.5 2.022134780883789 L 1.719490051269531 28 L 31.28050994873047 28 L 16.5 2.022134780883789 M 16.5 0 L 33 29 L 0 29 L 16.5 0 Z"/>
    </g>
    <g id="Polygon_72" data-name="Polygon 72" transform="translate(787.875 311.367) rotate(-68)">
      <path class="cls-7" d="M 32.14025497436523 28.5 L 0.8597451448440552 28.5 L 16.5 1.011067271232605 L 32.14025497436523 28.5 Z"/>
      <path class="cls-8" d="M 16.5 2.022134780883789 L 1.719490051269531 28 L 31.28050994873047 28 L 16.5 2.022134780883789 M 16.5 0 L 33 29 L 0 29 L 16.5 0 Z"/>
    </g>
    <g id="Polygon_14" data-name="Polygon 14" transform="translate(216.875 586.367) rotate(-68)">
      <path class="cls-7" d="M 32.14025497436523 28.5 L 0.8597451448440552 28.5 L 16.5 1.011067271232605 L 32.14025497436523 28.5 Z"/>
      <path class="cls-8" d="M 16.5 2.022134780883789 L 1.719490051269531 28 L 31.28050994873047 28 L 16.5 2.022134780883789 M 16.5 0 L 33 29 L 0 29 L 16.5 0 Z"/>
    </g>
    <g id="Polygon_29" data-name="Polygon 29" transform="translate(906.875 586.367) rotate(-68)">
      <path class="cls-7" d="M 32.14025497436523 28.5 L 0.8597451448440552 28.5 L 16.5 1.011067271232605 L 32.14025497436523 28.5 Z"/>
      <path class="cls-8" d="M 16.5 2.022134780883789 L 1.719490051269531 28 L 31.28050994873047 28 L 16.5 2.022134780883789 M 16.5 0 L 33 29 L 0 29 L 16.5 0 Z"/>
    </g>
    <g id="Polygon_91" data-name="Polygon 91" transform="translate(26.875 700.367) rotate(-68)">
      <path class="cls-7" d="M 32.14025497436523 28.5 L 0.8597451448440552 28.5 L 16.5 1.011067271232605 L 32.14025497436523 28.5 Z"/>
      <path class="cls-8" d="M 16.5 2.022134780883789 L 1.719490051269531 28 L 31.28050994873047 28 L 16.5 2.022134780883789 M 16.5 0 L 33 29 L 0 29 L 16.5 0 Z"/>
    </g>
    <g id="Polygon_61" data-name="Polygon 61" transform="translate(1416.875 580.367) rotate(-68)">
      <path class="cls-7" d="M 32.14025497436523 28.5 L 0.8597451448440552 28.5 L 16.5 1.011067271232605 L 32.14025497436523 28.5 Z"/>
      <path class="cls-8" d="M 16.5 2.022134780883789 L 1.719490051269531 28 L 31.28050994873047 28 L 16.5 2.022134780883789 M 16.5 0 L 33 29 L 0 29 L 16.5 0 Z"/>
    </g>
    <g id="Polygon_18" data-name="Polygon 18" transform="translate(688.875 397.367) rotate(-68)">
      <path class="cls-7" d="M 32.14025497436523 28.5 L 0.8597451448440552 28.5 L 16.5 1.011067271232605 L 32.14025497436523 28.5 Z"/>
      <path class="cls-8" d="M 16.5 2.022134780883789 L 1.719490051269531 28 L 31.28050994873047 28 L 16.5 2.022134780883789 M 16.5 0 L 33 29 L 0 29 L 16.5 0 Z"/>
    </g>
    <g id="Polygon_83" data-name="Polygon 83" transform="translate(1706.875 171.367) rotate(-68)">
      <path class="cls-7" d="M 32.14025497436523 28.5 L 0.8597451448440552 28.5 L 16.5 1.011067271232605 L 32.14025497436523 28.5 Z"/>
      <path class="cls-8" d="M 16.5 2.022134780883789 L 1.719490051269531 28 L 31.28050994873047 28 L 16.5 2.022134780883789 M 16.5 0 L 33 29 L 0 29 L 16.5 0 Z"/>
    </g>
    <path id="Polygon_30" data-name="Polygon 30" d="M16.5,0,33,29H0Z" transform="translate(1336.875 305.367) rotate(-68)"/>
    <g id="Polygon_73" data-name="Polygon 73" transform="translate(846.875 697.367) rotate(-68)">
      <path class="cls-7" d="M 32.14025497436523 28.5 L 0.8597451448440552 28.5 L 16.5 1.011067271232605 L 32.14025497436523 28.5 Z"/>
      <path class="cls-8" d="M 16.5 2.022134780883789 L 1.719490051269531 28 L 31.28050994873047 28 L 16.5 2.022134780883789 M 16.5 0 L 33 29 L 0 29 L 16.5 0 Z"/>
    </g>
    <g id="Polygon_50" data-name="Polygon 50" transform="translate(13.875 311.367) rotate(-68)">
      <path class="cls-7" d="M 32.14025497436523 28.5 L 0.8597451448440552 28.5 L 16.5 1.011067271232605 L 32.14025497436523 28.5 Z"/>
      <path class="cls-8" d="M 16.5 2.022134780883789 L 1.719490051269531 28 L 31.28050994873047 28 L 16.5 2.022134780883789 M 16.5 0 L 33 29 L 0 29 L 16.5 0 Z"/>
    </g>
    <g id="Polygon_3" data-name="Polygon 3" transform="matrix(0.914, 0.407, -0.407, 0.914, 666.324, 75.542)">
      <path class="cls-7" d="M 32.14025497436523 28.5 L 0.8597451448440552 28.5 L 16.5 1.011067271232605 L 32.14025497436523 28.5 Z"/>
      <path class="cls-8" d="M 16.5 2.022134780883789 L 1.719490051269531 28 L 31.28050994873047 28 L 16.5 2.022134780883789 M 16.5 0 L 33 29 L 0 29 L 16.5 0 Z"/>
    </g>
    <g id="Polygon_31" data-name="Polygon 31" transform="matrix(0.914, 0.407, -0.407, 0.914, 1356.324, 75.542)">
      <path class="cls-7" d="M 32.14025497436523 28.5 L 0.8597451448440552 28.5 L 16.5 1.011067271232605 L 32.14025497436523 28.5 Z"/>
      <path class="cls-8" d="M 16.5 2.022134780883789 L 1.719490051269531 28 L 31.28050994873047 28 L 16.5 2.022134780883789 M 16.5 0 L 33 29 L 0 29 L 16.5 0 Z"/>
    </g>
    <g id="Polygon_74" data-name="Polygon 74" transform="matrix(0.914, 0.407, -0.407, 0.914, 866.324, 461.542)">
      <path class="cls-7" d="M 32.14025497436523 28.5 L 0.8597451448440552 28.5 L 16.5 1.011067271232605 L 32.14025497436523 28.5 Z"/>
      <path class="cls-8" d="M 16.5 2.022134780883789 L 1.719490051269531 28 L 31.28050994873047 28 L 16.5 2.022134780883789 M 16.5 0 L 33 29 L 0 29 L 16.5 0 Z"/>
    </g>
    <g id="Polygon_88" data-name="Polygon 88" transform="matrix(0.914, 0.407, -0.407, 0.914, -13.676, 575.542)">
      <path class="cls-7" d="M 32.14025497436523 28.5 L 0.8597451448440552 28.5 L 16.5 1.011067271232605 L 32.14025497436523 28.5 Z"/>
      <path class="cls-8" d="M 16.5 2.022134780883789 L 1.719490051269531 28 L 31.28050994873047 28 L 16.5 2.022134780883789 M 16.5 0 L 33 29 L 0 29 L 16.5 0 Z"/>
    </g>
    <g id="Polygon_51" data-name="Polygon 51" transform="matrix(0.914, 0.407, -0.407, 0.914, 33.324, 75.542)">
      <path class="cls-7" d="M 32.14025497436523 28.5 L 0.8597451448440552 28.5 L 16.5 1.011067271232605 L 32.14025497436523 28.5 Z"/>
      <path class="cls-8" d="M 16.5 2.022134780883789 L 1.719490051269531 28 L 31.28050994873047 28 L 16.5 2.022134780883789 M 16.5 0 L 33 29 L 0 29 L 16.5 0 Z"/>
    </g>
    <g id="Polygon_5" data-name="Polygon 5" transform="matrix(0.914, 0.407, -0.407, 0.914, 666.324, 75.542)">
      <path class="cls-7" d="M 32.14025497436523 28.5 L 0.8597451448440552 28.5 L 16.5 1.011067271232605 L 32.14025497436523 28.5 Z"/>
      <path class="cls-8" d="M 16.5 2.022134780883789 L 1.719490051269531 28 L 31.28050994873047 28 L 16.5 2.022134780883789 M 16.5 0 L 33 29 L 0 29 L 16.5 0 Z"/>
    </g>
    <g id="Polygon_32" data-name="Polygon 32" transform="matrix(0.914, 0.407, -0.407, 0.914, 1356.324, 75.542)">
      <path class="cls-7" d="M 32.14025497436523 28.5 L 0.8597451448440552 28.5 L 16.5 1.011067271232605 L 32.14025497436523 28.5 Z"/>
      <path class="cls-8" d="M 16.5 2.022134780883789 L 1.719490051269531 28 L 31.28050994873047 28 L 16.5 2.022134780883789 M 16.5 0 L 33 29 L 0 29 L 16.5 0 Z"/>
    </g>
    <g id="Polygon_75" data-name="Polygon 75" transform="matrix(0.914, 0.407, -0.407, 0.914, 866.324, 461.542)">
      <path class="cls-7" d="M 32.14025497436523 28.5 L 0.8597451448440552 28.5 L 16.5 1.011067271232605 L 32.14025497436523 28.5 Z"/>
      <path class="cls-8" d="M 16.5 2.022134780883789 L 1.719490051269531 28 L 31.28050994873047 28 L 16.5 2.022134780883789 M 16.5 0 L 33 29 L 0 29 L 16.5 0 Z"/>
    </g>
    <g id="Polygon_89" data-name="Polygon 89" transform="matrix(0.914, 0.407, -0.407, 0.914, -13.676, 575.542)">
      <path class="cls-7" d="M 32.14025497436523 28.5 L 0.8597451448440552 28.5 L 16.5 1.011067271232605 L 32.14025497436523 28.5 Z"/>
      <path class="cls-8" d="M 16.5 2.022134780883789 L 1.719490051269531 28 L 31.28050994873047 28 L 16.5 2.022134780883789 M 16.5 0 L 33 29 L 0 29 L 16.5 0 Z"/>
    </g>
    <g id="Polygon_52" data-name="Polygon 52" transform="matrix(0.914, 0.407, -0.407, 0.914, 33.324, 75.542)">
      <path class="cls-7" d="M 32.14025497436523 28.5 L 0.8597451448440552 28.5 L 16.5 1.011067271232605 L 32.14025497436523 28.5 Z"/>
      <path class="cls-8" d="M 16.5 2.022134780883789 L 1.719490051269531 28 L 31.28050994873047 28 L 16.5 2.022134780883789 M 16.5 0 L 33 29 L 0 29 L 16.5 0 Z"/>
    </g>
    <g id="Polygon_9" data-name="Polygon 9" transform="matrix(0.914, 0.407, -0.407, 0.914, 228.324, 804.542)">
      <path class="cls-7" d="M 32.14025497436523 28.5 L 0.8597451448440552 28.5 L 16.5 1.011067271232605 L 32.14025497436523 28.5 Z"/>
      <path class="cls-8" d="M 16.5 2.022134780883789 L 1.719490051269531 28 L 31.28050994873047 28 L 16.5 2.022134780883789 M 16.5 0 L 33 29 L 0 29 L 16.5 0 Z"/>
    </g>
    <g id="Polygon_33" data-name="Polygon 33" transform="matrix(0.914, 0.407, -0.407, 0.914, 918.324, 804.542)">
      <path class="cls-7" d="M 32.14025497436523 28.5 L 0.8597451448440552 28.5 L 16.5 1.011067271232605 L 32.14025497436523 28.5 Z"/>
      <path class="cls-8" d="M 16.5 2.022134780883789 L 1.719490051269531 28 L 31.28050994873047 28 L 16.5 2.022134780883789 M 16.5 0 L 33 29 L 0 29 L 16.5 0 Z"/>
    </g>
    <g id="Polygon_107" data-name="Polygon 107" transform="matrix(0.914, 0.407, -0.407, 0.914, 566.324, 436.542)">
      <path class="cls-7" d="M 32.14025497436523 28.5 L 0.8597451448440552 28.5 L 16.5 1.011067271232605 L 32.14025497436523 28.5 Z"/>
      <path class="cls-8" d="M 16.5 2.022134780883789 L 1.719490051269531 28 L 31.28050994873047 28 L 16.5 2.022134780883789 M 16.5 0 L 33 29 L 0 29 L 16.5 0 Z"/>
    </g>
    <g id="Polygon_64" data-name="Polygon 64" transform="matrix(0.914, 0.407, -0.407, 0.914, 1428.324, 798.542)">
      <path class="cls-7" d="M 32.14025497436523 28.5 L 0.8597451448440552 28.5 L 16.5 1.011067271232605 L 32.14025497436523 28.5 Z"/>
      <path class="cls-8" d="M 16.5 2.022134780883789 L 1.719490051269531 28 L 31.28050994873047 28 L 16.5 2.022134780883789 M 16.5 0 L 33 29 L 0 29 L 16.5 0 Z"/>
    </g>
    <g id="Polygon_13" data-name="Polygon 13" transform="matrix(0.914, 0.407, -0.407, 0.914, 966.324, 55.542)">
      <path class="cls-7" d="M 32.14025497436523 28.5 L 0.8597451448440552 28.5 L 16.5 1.011067271232605 L 32.14025497436523 28.5 Z"/>
      <path class="cls-8" d="M 16.5 2.022134780883789 L 1.719490051269531 28 L 31.28050994873047 28 L 16.5 2.022134780883789 M 16.5 0 L 33 29 L 0 29 L 16.5 0 Z"/>
    </g>
    <g id="Polygon_67" data-name="Polygon 67" transform="matrix(0.914, 0.407, -0.407, 0.914, 476.324, 441.542)">
      <path class="cls-7" d="M 32.14025497436523 28.5 L 0.8597451448440552 28.5 L 16.5 1.011067271232605 L 32.14025497436523 28.5 Z"/>
      <path class="cls-8" d="M 16.5 2.022134780883789 L 1.719490051269531 28 L 31.28050994873047 28 L 16.5 2.022134780883789 M 16.5 0 L 33 29 L 0 29 L 16.5 0 Z"/>
    </g>
    <g id="Polygon_34" data-name="Polygon 34" transform="matrix(0.914, 0.407, -0.407, 0.914, 1656.324, 55.542)">
      <path class="cls-7" d="M 32.14025497436523 28.5 L 0.8597451448440552 28.5 L 16.5 1.011067271232605 L 32.14025497436523 28.5 Z"/>
      <path class="cls-8" d="M 16.5 2.022134780883789 L 1.719490051269531 28 L 31.28050994873047 28 L 16.5 2.022134780883789 M 16.5 0 L 33 29 L 0 29 L 16.5 0 Z"/>
    </g>
    <g id="Polygon_54" data-name="Polygon 54" transform="matrix(0.914, 0.407, -0.407, 0.914, 333.324, 55.542)">
      <path class="cls-7" d="M 32.14025497436523 28.5 L 0.8597451448440552 28.5 L 16.5 1.011067271232605 L 32.14025497436523 28.5 Z"/>
      <path class="cls-8" d="M 16.5 2.022134780883789 L 1.719490051269531 28 L 31.28050994873047 28 L 16.5 2.022134780883789 M 16.5 0 L 33 29 L 0 29 L 16.5 0 Z"/>
    </g>
    <g id="Polygon_17" data-name="Polygon 17" transform="matrix(0.914, 0.407, -0.407, 0.914, 270.324, 359.542)">
      <path class="cls-7" d="M 32.14025497436523 28.5 L 0.8597451448440552 28.5 L 16.5 1.011067271232605 L 32.14025497436523 28.5 Z"/>
      <path class="cls-8" d="M 16.5 2.022134780883789 L 1.719490051269531 28 L 31.28050994873047 28 L 16.5 2.022134780883789 M 16.5 0 L 33 29 L 0 29 L 16.5 0 Z"/>
    </g>
    <g id="Polygon_35" data-name="Polygon 35" transform="matrix(0.914, 0.407, -0.407, 0.914, 960.324, 359.542)">
      <path class="cls-7" d="M 32.14025497436523 28.5 L 0.8597451448440552 28.5 L 16.5 1.011067271232605 L 32.14025497436523 28.5 Z"/>
      <path class="cls-8" d="M 16.5 2.022134780883789 L 1.719490051269531 28 L 31.28050994873047 28 L 16.5 2.022134780883789 M 16.5 0 L 33 29 L 0 29 L 16.5 0 Z"/>
    </g>
    <g id="Polygon_90" data-name="Polygon 90" transform="matrix(0.914, 0.407, -0.407, 0.914, 80.324, 473.542)">
      <path class="cls-7" d="M 32.14025497436523 28.5 L 0.8597451448440552 28.5 L 16.5 1.011067271232605 L 32.14025497436523 28.5 Z"/>
      <path class="cls-8" d="M 16.5 2.022134780883789 L 1.719490051269531 28 L 31.28050994873047 28 L 16.5 2.022134780883789 M 16.5 0 L 33 29 L 0 29 L 16.5 0 Z"/>
    </g>
    <g id="Polygon_76" data-name="Polygon 76" transform="matrix(0.914, 0.407, -0.407, 0.914, 777.324, 971.542)">
      <path class="cls-7" d="M 32.14025497436523 28.5 L 0.8597451448440552 28.5 L 16.5 1.011067271232605 L 32.14025497436523 28.5 Z"/>
      <path class="cls-8" d="M 16.5 2.022134780883789 L 1.719490051269531 28 L 31.28050994873047 28 L 16.5 2.022134780883789 M 16.5 0 L 33 29 L 0 29 L 16.5 0 Z"/>
    </g>
    <g id="Polygon_4" data-name="Polygon 4" transform="matrix(0.407, 0.914, -0.914, 0.407, 526.035, 351.529)">
      <path class="cls-7" d="M 32.14025497436523 28.5 L 0.8597451448440552 28.5 L 16.5 1.011067271232605 L 32.14025497436523 28.5 Z"/>
      <path class="cls-8" d="M 16.5 2.022134780883789 L 1.719490051269531 28 L 31.28050994873047 28 L 16.5 2.022134780883789 M 16.5 0 L 33 29 L 0 29 L 16.5 0 Z"/>
    </g>
    <g id="Polygon_84" data-name="Polygon 84" transform="matrix(0.407, 0.914, -0.914, 0.407, 1544.035, 125.529)">
      <path class="cls-7" d="M 32.14025497436523 28.5 L 0.8597451448440552 28.5 L 16.5 1.011067271232605 L 32.14025497436523 28.5 Z"/>
      <path class="cls-8" d="M 16.5 2.022134780883789 L 1.719490051269531 28 L 31.28050994873047 28 L 16.5 2.022134780883789 M 16.5 0 L 33 29 L 0 29 L 16.5 0 Z"/>
    </g>
    <g id="Polygon_36" data-name="Polygon 36" transform="matrix(0.407, 0.914, -0.914, 0.407, 1216.035, 351.529)">
      <path class="cls-7" d="M 32.14025497436523 28.5 L 0.8597451448440552 28.5 L 16.5 1.011067271232605 L 32.14025497436523 28.5 Z"/>
      <path class="cls-8" d="M 16.5 2.022134780883789 L 1.719490051269531 28 L 31.28050994873047 28 L 16.5 2.022134780883789 M 16.5 0 L 33 29 L 0 29 L 16.5 0 Z"/>
    </g>
    <g id="Polygon_77" data-name="Polygon 77" transform="matrix(0.407, 0.914, -0.914, 0.407, 726.035, 737.529)">
      <path class="cls-7" d="M 32.14025497436523 28.5 L 0.8597451448440552 28.5 L 16.5 1.011067271232605 L 32.14025497436523 28.5 Z"/>
      <path class="cls-8" d="M 16.5 2.022134780883789 L 1.719490051269531 28 L 31.28050994873047 28 L 16.5 2.022134780883789 M 16.5 0 L 33 29 L 0 29 L 16.5 0 Z"/>
    </g>
    <g id="Polygon_8" data-name="Polygon 8" transform="matrix(0.407, 0.914, -0.914, 0.407, 526.035, 351.529)">
      <path class="cls-7" d="M 32.14025497436523 28.5 L 0.8597451448440552 28.5 L 16.5 1.011067271232605 L 32.14025497436523 28.5 Z"/>
      <path class="cls-8" d="M 16.5 2.022134780883789 L 1.719490051269531 28 L 31.28050994873047 28 L 16.5 2.022134780883789 M 16.5 0 L 33 29 L 0 29 L 16.5 0 Z"/>
    </g>
    <g id="Polygon_85" data-name="Polygon 85" transform="matrix(0.407, 0.914, -0.914, 0.407, 1544.035, 125.529)">
      <path class="cls-7" d="M 32.14025497436523 28.5 L 0.8597451448440552 28.5 L 16.5 1.011067271232605 L 32.14025497436523 28.5 Z"/>
      <path class="cls-8" d="M 16.5 2.022134780883789 L 1.719490051269531 28 L 31.28050994873047 28 L 16.5 2.022134780883789 M 16.5 0 L 33 29 L 0 29 L 16.5 0 Z"/>
    </g>
    <g id="Polygon_37" data-name="Polygon 37" transform="matrix(0.407, 0.914, -0.914, 0.407, 1216.035, 351.529)">
      <path class="cls-7" d="M 32.14025497436523 28.5 L 0.8597451448440552 28.5 L 16.5 1.011067271232605 L 32.14025497436523 28.5 Z"/>
      <path class="cls-8" d="M 16.5 2.022134780883789 L 1.719490051269531 28 L 31.28050994873047 28 L 16.5 2.022134780883789 M 16.5 0 L 33 29 L 0 29 L 16.5 0 Z"/>
    </g>
    <g id="Polygon_78" data-name="Polygon 78" transform="matrix(0.407, 0.914, -0.914, 0.407, 726.035, 737.529)">
      <path class="cls-7" d="M 32.14025497436523 28.5 L 0.8597451448440552 28.5 L 16.5 1.011067271232605 L 32.14025497436523 28.5 Z"/>
      <path class="cls-8" d="M 16.5 2.022134780883789 L 1.719490051269531 28 L 31.28050994873047 28 L 16.5 2.022134780883789 M 16.5 0 L 33 29 L 0 29 L 16.5 0 Z"/>
    </g>
    <g id="Polygon_12" data-name="Polygon 12" class="cls-3" transform="matrix(0.407, 0.914, -0.914, 0.407, 379.035, 498.529)">
      <path class="cls-7" d="M 32.14025497436523 28.5 L 0.8597451448440552 28.5 L 16.5 1.011067271232605 L 32.14025497436523 28.5 Z"/>
      <path class="cls-8" d="M 16.5 2.022134780883789 L 1.719490051269531 28 L 31.28050994873047 28 L 16.5 2.022134780883789 M 16.5 0 L 33 29 L 0 29 L 16.5 0 Z"/>
    </g>
    <g id="Polygon_38" data-name="Polygon 38" class="cls-3" transform="matrix(0.407, 0.914, -0.914, 0.407, 1069.035, 498.529)">
      <path class="cls-7" d="M 32.14025497436523 28.5 L 0.8597451448440552 28.5 L 16.5 1.011067271232605 L 32.14025497436523 28.5 Z"/>
      <path class="cls-8" d="M 16.5 2.022134780883789 L 1.719490051269531 28 L 31.28050994873047 28 L 16.5 2.022134780883789 M 16.5 0 L 33 29 L 0 29 L 16.5 0 Z"/>
    </g>
    <g id="Polygon_93" data-name="Polygon 93" class="cls-3" transform="matrix(0.407, 0.914, -0.914, 0.407, 189.035, 612.529)">
      <path class="cls-7" d="M 32.14025497436523 28.5 L 0.8597451448440552 28.5 L 16.5 1.011067271232605 L 32.14025497436523 28.5 Z"/>
      <path class="cls-8" d="M 16.5 2.022134780883789 L 1.719490051269531 28 L 31.28050994873047 28 L 16.5 2.022134780883789 M 16.5 0 L 33 29 L 0 29 L 16.5 0 Z"/>
    </g>
    <g id="Polygon_81" data-name="Polygon 81" class="cls-3" transform="matrix(0.407, 0.914, -0.914, 0.407, 579.035, 884.529)">
      <path class="cls-7" d="M 32.14025497436523 28.5 L 0.8597451448440552 28.5 L 16.5 1.011067271232605 L 32.14025497436523 28.5 Z"/>
      <path class="cls-8" d="M 16.5 2.022134780883789 L 1.719490051269531 28 L 31.28050994873047 28 L 16.5 2.022134780883789 M 16.5 0 L 33 29 L 0 29 L 16.5 0 Z"/>
    </g>
    <g id="Polygon_62" data-name="Polygon 62" class="cls-3" transform="matrix(0.407, 0.914, -0.914, 0.407, 1579.035, 492.529)">
      <path class="cls-7" d="M 32.14025497436523 28.5 L 0.8597451448440552 28.5 L 16.5 1.011067271232605 L 32.14025497436523 28.5 Z"/>
      <path class="cls-8" d="M 16.5 2.022134780883789 L 1.719490051269531 28 L 31.28050994873047 28 L 16.5 2.022134780883789 M 16.5 0 L 33 29 L 0 29 L 16.5 0 Z"/>
    </g>
    <g id="Polygon_82" data-name="Polygon 82" class="cls-3" transform="matrix(0.407, 0.914, -0.914, 0.407, 1091.035, 1007.529)">
      <path class="cls-7" d="M 32.14025497436523 28.5 L 0.8597451448440552 28.5 L 16.5 1.011067271232605 L 32.14025497436523 28.5 Z"/>
      <path class="cls-8" d="M 16.5 2.022134780883789 L 1.719490051269531 28 L 31.28050994873047 28 L 16.5 2.022134780883789 M 16.5 0 L 33 29 L 0 29 L 16.5 0 Z"/>
    </g>
    <g id="Polygon_16" data-name="Polygon 16" class="cls-3" transform="matrix(0.407, 0.914, -0.914, 0.407, 749.035, 169.529)">
      <path class="cls-7" d="M 32.14025497436523 28.5 L 0.8597451448440552 28.5 L 16.5 1.011067271232605 L 32.14025497436523 28.5 Z"/>
      <path class="cls-8" d="M 16.5 2.022134780883789 L 1.719490051269531 28 L 31.28050994873047 28 L 16.5 2.022134780883789 M 16.5 0 L 33 29 L 0 29 L 16.5 0 Z"/>
    </g>
    <g id="Polygon_39" data-name="Polygon 39" class="cls-3" transform="matrix(0.407, 0.914, -0.914, 0.407, 1439.035, 169.529)">
      <path class="cls-7" d="M 32.14025497436523 28.5 L 0.8597451448440552 28.5 L 16.5 1.011067271232605 L 32.14025497436523 28.5 Z"/>
      <path class="cls-8" d="M 16.5 2.022134780883789 L 1.719490051269531 28 L 31.28050994873047 28 L 16.5 2.022134780883789 M 16.5 0 L 33 29 L 0 29 L 16.5 0 Z"/>
    </g>
    <g id="Polygon_79" data-name="Polygon 79" class="cls-3" transform="matrix(0.407, 0.914, -0.914, 0.407, 985.035, 590.529)">
      <path class="cls-7" d="M 32.14025497436523 28.5 L 0.8597451448440552 28.5 L 16.5 1.011067271232605 L 32.14025497436523 28.5 Z"/>
      <path class="cls-8" d="M 16.5 2.022134780883789 L 1.719490051269531 28 L 31.28050994873047 28 L 16.5 2.022134780883789 M 16.5 0 L 33 29 L 0 29 L 16.5 0 Z"/>
    </g>
    <g id="Polygon_106" data-name="Polygon 106" class="cls-3" transform="matrix(0.407, 0.914, -0.914, 0.407, 633.035, 222.529)">
      <path class="cls-7" d="M 32.14025497436523 28.5 L 0.8597451448440552 28.5 L 16.5 1.011067271232605 L 32.14025497436523 28.5 Z"/>
      <path class="cls-8" d="M 16.5 2.022134780883789 L 1.719490051269531 28 L 31.28050994873047 28 L 16.5 2.022134780883789 M 16.5 0 L 33 29 L 0 29 L 16.5 0 Z"/>
    </g>
    <g id="Polygon_109" data-name="Polygon 109" class="cls-3" transform="matrix(0.407, 0.914, -0.914, 0.407, 383.035, 232.529)">
      <path class="cls-7" d="M 32.14025497436523 28.5 L 0.8597451448440552 28.5 L 16.5 1.011067271232605 L 32.14025497436523 28.5 Z"/>
      <path class="cls-8" d="M 16.5 2.022134780883789 L 1.719490051269531 28 L 31.28050994873047 28 L 16.5 2.022134780883789 M 16.5 0 L 33 29 L 0 29 L 16.5 0 Z"/>
    </g>
    <g id="Polygon_110" data-name="Polygon 110" class="cls-3" transform="matrix(0.407, 0.914, -0.914, 0.407, 667.035, 10.529)">
      <path class="cls-7" d="M 32.14025497436523 28.5 L 0.8597451448440552 28.5 L 16.5 1.011067271232605 L 32.14025497436523 28.5 Z"/>
      <path class="cls-8" d="M 16.5 2.022134780883789 L 1.719490051269531 28 L 31.28050994873047 28 L 16.5 2.022134780883789 M 16.5 0 L 33 29 L 0 29 L 16.5 0 Z"/>
    </g>
    <g id="Polygon_94" data-name="Polygon 94" class="cls-3" transform="matrix(0.407, 0.914, -0.914, 0.407, 105.035, 704.529)">
      <path class="cls-7" d="M 32.14025497436523 28.5 L 0.8597451448440552 28.5 L 16.5 1.011067271232605 L 32.14025497436523 28.5 Z"/>
      <path class="cls-8" d="M 16.5 2.022134780883789 L 1.719490051269531 28 L 31.28050994873047 28 L 16.5 2.022134780883789 M 16.5 0 L 33 29 L 0 29 L 16.5 0 Z"/>
    </g>
    <g id="Polygon_59" data-name="Polygon 59" class="cls-3" transform="matrix(0.407, 0.914, -0.914, 0.407, 116.035, 169.529)">
      <path class="cls-7" d="M 32.14025497436523 28.5 L 0.8597451448440552 28.5 L 16.5 1.011067271232605 L 32.14025497436523 28.5 Z"/>
      <path class="cls-8" d="M 16.5 2.022134780883789 L 1.719490051269531 28 L 31.28050994873047 28 L 16.5 2.022134780883789 M 16.5 0 L 33 29 L 0 29 L 16.5 0 Z"/>
    </g>
    <g id="Polygon_20" data-name="Polygon 20" class="cls-3" transform="matrix(0.407, 0.914, -0.914, 0.407, 465.035, 752.529)">
      <path class="cls-7" d="M 32.14025497436523 28.5 L 0.8597451448440552 28.5 L 16.5 1.011067271232605 L 32.14025497436523 28.5 Z"/>
      <path class="cls-8" d="M 16.5 2.022134780883789 L 1.719490051269531 28 L 31.28050994873047 28 L 16.5 2.022134780883789 M 16.5 0 L 33 29 L 0 29 L 16.5 0 Z"/>
    </g>
    <g id="Polygon_40" data-name="Polygon 40" class="cls-3" transform="matrix(0.407, 0.914, -0.914, 0.407, 1155.035, 752.529)">
      <path class="cls-7" d="M 32.14025497436523 28.5 L 0.8597451448440552 28.5 L 16.5 1.011067271232605 L 32.14025497436523 28.5 Z"/>
      <path class="cls-8" d="M 16.5 2.022134780883789 L 1.719490051269531 28 L 31.28050994873047 28 L 16.5 2.022134780883789 M 16.5 0 L 33 29 L 0 29 L 16.5 0 Z"/>
    </g>
    <g id="Polygon_108" data-name="Polygon 108" class="cls-3" transform="matrix(0.407, 0.914, -0.914, 0.407, 803.035, 384.529)">
      <path class="cls-7" d="M 32.14025497436523 28.5 L 0.8597451448440552 28.5 L 16.5 1.011067271232605 L 32.14025497436523 28.5 Z"/>
      <path class="cls-8" d="M 16.5 2.022134780883789 L 1.719490051269531 28 L 31.28050994873047 28 L 16.5 2.022134780883789 M 16.5 0 L 33 29 L 0 29 L 16.5 0 Z"/>
    </g>
    <g id="Polygon_65" data-name="Polygon 65" transform="matrix(0.407, 0.914, -0.914, 0.407, 1665.035, 746.529)">
      <path class="cls-7" d="M 32.14025497436523 28.5 L 0.8597451448440552 28.5 L 16.5 1.011067271232605 L 32.14025497436523 28.5 Z"/>
      <path class="cls-8" d="M 16.5 2.022134780883789 L 1.719490051269531 28 L 31.28050994873047 28 L 16.5 2.022134780883789 M 16.5 0 L 33 29 L 0 29 L 16.5 0 Z"/>
    </g>
    <g id="Ellipse_1" data-name="Ellipse 1" class="cls-4" transform="translate(478 919)">
      <circle class="cls-7" cx="15" cy="15" r="15"/>
      <circle class="cls-9" cx="15" cy="15" r="14.5"/>
    </g>
    <g id="Ellipse_13" data-name="Ellipse 13" class="cls-4" transform="translate(1168 919)">
      <circle class="cls-7" cx="15" cy="15" r="15"/>
      <circle class="cls-9" cx="15" cy="15" r="14.5"/>
    </g>
    <g id="Ellipse_44" data-name="Ellipse 44" class="cls-4" transform="translate(1678 913)">
      <circle class="cls-7" cx="15" cy="15" r="15"/>
      <circle class="cls-9" cx="15" cy="15" r="14.5"/>
    </g>
    <g id="Ellipse_10" data-name="Ellipse 10" class="cls-4" transform="translate(217 961)">
      <circle class="cls-7" cx="15" cy="15" r="15"/>
      <circle class="cls-9" cx="15" cy="15" r="14.5"/>
    </g>
    <g id="Ellipse_14" data-name="Ellipse 14" class="cls-4" transform="translate(907 961)">
      <circle class="cls-7" cx="15" cy="15" r="15"/>
      <circle class="cls-9" cx="15" cy="15" r="14.5"/>
    </g>
    <g id="Ellipse_45" data-name="Ellipse 45" class="cls-4" transform="translate(1417 955)">
      <circle class="cls-7" cx="15" cy="15" r="15"/>
      <circle class="cls-9" cx="15" cy="15" r="14.5"/>
    </g>
    <g id="Ellipse_9" data-name="Ellipse 9" class="cls-4" transform="translate(357 858)">
      <circle class="cls-7" cx="15" cy="15" r="15"/>
      <circle class="cls-9" cx="15" cy="15" r="14.5"/>
    </g>
    <g id="Ellipse_15" data-name="Ellipse 15" class="cls-4" transform="translate(1047 858)">
      <circle class="cls-7" cx="15" cy="15" r="15"/>
      <circle class="cls-9" cx="15" cy="15" r="14.5"/>
    </g>
    <g id="Ellipse_41" data-name="Ellipse 41" class="cls-4" transform="translate(1557 852)">
      <circle class="cls-7" cx="15" cy="15" r="15"/>
      <circle class="cls-9" cx="15" cy="15" r="14.5"/>
    </g>
    <g id="Ellipse_11" data-name="Ellipse 11" class="cls-4" transform="translate(566 675)">
      <circle class="cls-7" cx="15" cy="15" r="15"/>
      <circle class="cls-9" cx="15" cy="15" r="14.5"/>
    </g>
    <g id="Ellipse_16" data-name="Ellipse 16" class="cls-4" transform="translate(1256 675)">
      <circle class="cls-7" cx="15" cy="15" r="15"/>
      <circle class="cls-9" cx="15" cy="15" r="14.5"/>
    </g>
    <g id="Ellipse_42" data-name="Ellipse 42" class="cls-4" transform="translate(1766 669)">
      <circle class="cls-7" cx="15" cy="15" r="15"/>
      <circle class="cls-9" cx="15" cy="15" r="14.5"/>
    </g>
    <g id="Ellipse_2" data-name="Ellipse 2" class="cls-4" transform="translate(217 714)">
      <circle class="cls-7" cx="15" cy="15" r="15"/>
      <circle class="cls-9" cx="15" cy="15" r="14.5"/>
    </g>
    <circle id="Ellipse_17" data-name="Ellipse 17" class="cls-5" cx="15" cy="15" r="15" transform="translate(907 708)"/>
    <circle id="Ellipse_60" data-name="Ellipse 60" class="cls-5" cx="15" cy="15" r="15" transform="translate(555 346)"/>
    <circle id="Ellipse_62" data-name="Ellipse 62" class="cls-5" cx="15" cy="15" r="15" transform="translate(305 356)"/>
    <circle id="Ellipse_64" data-name="Ellipse 64" class="cls-5" cx="15" cy="15" r="15" transform="translate(589 134)"/>
    <circle id="Ellipse_39" data-name="Ellipse 39" class="cls-5" cx="15" cy="15" r="15" transform="translate(1417 702)"/>
    <circle id="Ellipse_3" data-name="Ellipse 3" class="cls-5" cx="15" cy="15" r="15" transform="translate(360 654)"/>
    <circle id="Ellipse_18" data-name="Ellipse 18" class="cls-5" cx="15" cy="15" r="15" transform="translate(1050 654)"/>
    <circle id="Ellipse_61" data-name="Ellipse 61" class="cls-5" cx="15" cy="15" r="15" transform="translate(698 292)"/>
    <circle id="Ellipse_63" data-name="Ellipse 63" class="cls-5" cx="15" cy="15" r="15" transform="translate(448 302)"/>
    <circle id="Ellipse_65" data-name="Ellipse 65" class="cls-5" cx="15" cy="15" r="15" transform="translate(732 80)"/>
    <circle id="Ellipse_38" data-name="Ellipse 38" class="cls-5" cx="15" cy="15" r="15" transform="translate(1560 648)"/>
    <circle id="Ellipse_4" data-name="Ellipse 4" class="cls-5" cx="15" cy="15" r="15" transform="translate(459 490)"/>
    <g id="Ellipse_19" data-name="Ellipse 19" class="cls-4" transform="translate(1149 490)">
      <circle class="cls-7" cx="15" cy="15" r="15"/>
      <circle class="cls-9" cx="15" cy="15" r="14.5"/>
    </g>
    <g id="Ellipse_50" data-name="Ellipse 50" class="cls-4" transform="translate(659 876)">
      <circle class="cls-7" cx="15" cy="15" r="15"/>
      <circle class="cls-9" cx="15" cy="15" r="14.5"/>
    </g>
    <g id="Ellipse_40" data-name="Ellipse 40" class="cls-4" transform="translate(1659 484)">
      <circle class="cls-7" cx="15" cy="15" r="15"/>
      <circle class="cls-9" cx="15" cy="15" r="14.5"/>
    </g>
    <g id="Ellipse_5" data-name="Ellipse 5" class="cls-6" transform="translate(614 345)">
      <circle class="cls-7" cx="15" cy="15" r="15"/>
      <circle class="cls-9" cx="15" cy="15" r="14.5"/>
    </g>
    <g id="Ellipse_53" data-name="Ellipse 53" class="cls-6" transform="translate(1632 119)">
      <circle class="cls-7" cx="15" cy="15" r="15"/>
      <circle class="cls-9" cx="15" cy="15" r="14.5"/>
    </g>
    <g id="Ellipse_20" data-name="Ellipse 20" class="cls-4" transform="translate(1297 399)">
      <circle class="cls-7" cx="15" cy="15" r="15"/>
      <circle class="cls-9" cx="15" cy="15" r="14.5"/>
    </g>
    <g id="Ellipse_49" data-name="Ellipse 49" class="cls-4" transform="translate(807 785)">
      <circle class="cls-7" cx="15" cy="15" r="15"/>
      <circle class="cls-9" cx="15" cy="15" r="14.5"/>
    </g>
    <g id="Ellipse_43" data-name="Ellipse 43" class="cls-4" transform="translate(1807 393)">
      <circle class="cls-7" cx="15" cy="15" r="15"/>
      <circle class="cls-9" cx="15" cy="15" r="14.5"/>
    </g>
    <g id="Ellipse_32" data-name="Ellipse 32" class="cls-4" transform="translate(-26 399)">
      <circle class="cls-7" cx="15" cy="15" r="15"/>
      <circle class="cls-9" cx="15" cy="15" r="14.5"/>
    </g>
    <g id="Ellipse_6" data-name="Ellipse 6" class="cls-6" transform="translate(293 469)">
      <circle class="cls-7" cx="15" cy="15" r="15"/>
      <circle class="cls-9" cx="15" cy="15" r="14.5"/>
    </g>
    <g id="Ellipse_21" data-name="Ellipse 21" class="cls-6" transform="translate(1166 660)">
      <circle class="cls-7" cx="15" cy="15" r="15"/>
      <circle class="cls-9" cx="15" cy="15" r="14.5"/>
    </g>
    <g id="Ellipse_55" data-name="Ellipse 55" class="cls-6" transform="translate(103 583)">
      <circle class="cls-7" cx="15" cy="15" r="15"/>
      <circle class="cls-9" cx="15" cy="15" r="14.5"/>
    </g>
    <g id="Ellipse_51" data-name="Ellipse 51" class="cls-6" transform="translate(493 855)">
      <circle class="cls-7" cx="15" cy="15" r="15"/>
      <circle class="cls-9" cx="15" cy="15" r="14.5"/>
    </g>
    <g id="Ellipse_37" data-name="Ellipse 37" class="cls-6" transform="translate(1493 463)">
      <circle class="cls-7" cx="15" cy="15" r="15"/>
      <circle class="cls-9" cx="15" cy="15" r="14.5"/>
    </g>
    <g id="Ellipse_52" data-name="Ellipse 52" class="cls-6" transform="translate(1003 849)">
      <circle class="cls-7" cx="15" cy="15" r="15"/>
      <circle class="cls-9" cx="15" cy="15" r="14.5"/>
    </g>
    <g id="Ellipse_7" data-name="Ellipse 7" class="cls-6" transform="translate(250 281)">
      <circle class="cls-7" cx="15" cy="15" r="15"/>
      <circle class="cls-9" cx="15" cy="15" r="14.5"/>
    </g>
    <g id="Ellipse_22" data-name="Ellipse 22" class="cls-6" transform="translate(940 281)">
      <circle class="cls-7" cx="15" cy="15" r="15"/>
      <circle class="cls-9" cx="15" cy="15" r="14.5"/>
    </g>
    <g id="Ellipse_46" data-name="Ellipse 46" class="cls-4" transform="translate(450 667)">
      <circle class="cls-7" cx="15" cy="15" r="15"/>
      <circle class="cls-9" cx="15" cy="15" r="14.5"/>
    </g>
    <g id="Ellipse_8" data-name="Ellipse 8" class="cls-4" transform="translate(523 96)">
      <circle class="cls-7" cx="15" cy="15" r="15"/>
      <circle class="cls-9" cx="15" cy="15" r="14.5"/>
    </g>
    <g id="Ellipse_23" data-name="Ellipse 23" class="cls-4" transform="translate(1213 96)">
      <circle class="cls-7" cx="15" cy="15" r="15"/>
      <circle class="cls-9" cx="15" cy="15" r="14.5"/>
    </g>
    <g id="Ellipse_47" data-name="Ellipse 47" class="cls-6" transform="translate(723 482)">
      <circle class="cls-7" cx="15" cy="15" r="15"/>
      <circle class="cls-9" cx="15" cy="15" r="14.5"/>
    </g>
    <g id="Ellipse_56" data-name="Ellipse 56" class="cls-6" transform="translate(1830 839)">
      <circle class="cls-7" cx="15" cy="15" r="15"/>
      <circle class="cls-9" cx="15" cy="15" r="14.5"/>
    </g>
    <g id="Ellipse_67" data-name="Ellipse 67" class="cls-6" transform="translate(1127 856)">
      <circle class="cls-7" cx="15" cy="15" r="15"/>
      <circle class="cls-9" cx="15" cy="15" r="14.5"/>
    </g>
    <g id="Ellipse_54" data-name="Ellipse 54" class="cls-6" transform="translate(1741 256)">
      <circle class="cls-7" cx="15" cy="15" r="15"/>
      <circle class="cls-9" cx="15" cy="15" r="14.5"/>
    </g>
    <g id="Ellipse_12" data-name="Ellipse 12" class="cls-4" transform="translate(907 175)">
      <circle class="cls-7" cx="15" cy="15" r="15"/>
      <circle class="cls-9" cx="15" cy="15" r="14.5"/>
    </g>
    <g id="Ellipse_48" data-name="Ellipse 48" class="cls-6" transform="translate(417 561)">
      <circle class="cls-7" cx="15" cy="15" r="15"/>
      <circle class="cls-9" cx="15" cy="15" r="14.5"/>
    </g>
    <g id="Ellipse_24" data-name="Ellipse 24" class="cls-4" transform="translate(1597 175)">
      <circle class="cls-7" cx="15" cy="15" r="15"/>
      <circle class="cls-9" cx="15" cy="15" r="14.5"/>
    </g>
    <g id="Ellipse_36" data-name="Ellipse 36" class="cls-4" transform="translate(274 175)">
      <circle class="cls-7" cx="15" cy="15" r="15"/>
      <circle class="cls-9" cx="15" cy="15" r="14.5"/>
    </g>
    <g id="Polygon_111" data-name="Polygon 111" transform="translate(1310.875 960.367) rotate(-68)">
      <path class="cls-7" d="M 32.14025497436523 28.5 L 0.8597451448440552 28.5 L 16.5 1.011067271232605 L 32.14025497436523 28.5 Z"/>
      <path class="cls-8" d="M 16.5 2.022134780883789 L 1.719490051269531 28 L 31.28050994873047 28 L 16.5 2.022134780883789 M 16.5 0 L 33 29 L 0 29 L 16.5 0 Z"/>
    </g>
    <g id="Polygon_112" data-name="Polygon 112" transform="translate(1250.875 1071.367) rotate(-68)">
      <path class="cls-7" d="M 32.14025497436523 28.5 L 0.8597451448440552 28.5 L 16.5 1.011067271232605 L 32.14025497436523 28.5 Z"/>
      <path class="cls-8" d="M 16.5 2.022134780883789 L 1.719490051269531 28 L 31.28050994873047 28 L 16.5 2.022134780883789 M 16.5 0 L 33 29 L 0 29 L 16.5 0 Z"/>
    </g>
    <g id="Polygon_113" data-name="Polygon 113" transform="matrix(0.914, 0.407, -0.407, 0.914, 1270.324, 835.542)">
      <path class="cls-7" d="M 32.14025497436523 28.5 L 0.8597451448440552 28.5 L 16.5 1.011067271232605 L 32.14025497436523 28.5 Z"/>
      <path class="cls-8" d="M 16.5 2.022134780883789 L 1.719490051269531 28 L 31.28050994873047 28 L 16.5 2.022134780883789 M 16.5 0 L 33 29 L 0 29 L 16.5 0 Z"/>
    </g>
    <g id="Polygon_114" data-name="Polygon 114" transform="matrix(0.914, 0.407, -0.407, 0.914, 1270.324, 835.542)">
      <path class="cls-7" d="M 32.14025497436523 28.5 L 0.8597451448440552 28.5 L 16.5 1.011067271232605 L 32.14025497436523 28.5 Z"/>
      <path class="cls-8" d="M 16.5 2.022134780883789 L 1.719490051269531 28 L 31.28050994873047 28 L 16.5 2.022134780883789 M 16.5 0 L 33 29 L 0 29 L 16.5 0 Z"/>
    </g>
  </g>
</svg>
